<svg id="Grupo_406" data-name="Grupo 406" xmlns="http://www.w3.org/2000/svg" width="951.238" height="396.882" viewBox="0 0 951.238 396.882">
  <path id="Trazado_2703" data-name="Trazado 2703" d="M11.426,202.021,503.134,61.408l-.435-4.142L10.991,197.878Z" transform="translate(13.902 72.433)" fill="#525d6c" fill-rule="evenodd" opacity="0.1"/>
  <path id="Trazado_2704" data-name="Trazado 2704" d="M235.549,96.745l-181.28,51.84.416,3.957,181.28-51.84Z" transform="translate(68.643 122.368)" fill="#525d6c" fill-rule="evenodd" opacity="0.1"/>
  <path id="Trazado_2705" data-name="Trazado 2705" d="M52.89,150.495l165.937-47.578-.483-4.6L52.407,145.894Z" transform="translate(66.287 124.357)" fill="#2cdbba" fill-rule="evenodd"/>
  <path id="Trazado_2706" data-name="Trazado 2706" d="M87.665,169.558,351.658,93.866l-.4-3.777L87.268,165.78Z" transform="translate(110.382 113.949)" fill="#525d6c" fill-rule="evenodd" opacity="0.1"/>
  <path id="Trazado_2707" data-name="Trazado 2707" d="M15.208,207.808l279.7-81.161-.42-4L14.816,204.08Z" transform="translate(18.74 155.131)" fill="#edf1f5" fill-rule="evenodd"/>
  <path id="Trazado_2708" data-name="Trazado 2708" d="M.539,174.349,385.517,62.64l-.579-5.505L0,169.218Z" transform="translate(0 72.267)" fill="#edf1f5" fill-rule="evenodd"/>
  <path id="Trazado_2709" data-name="Trazado 2709" d="M31.772,222.795l279.7-81.161-.42-4L31.38,219.067Z" transform="translate(39.692 174.087)" fill="#edf1f5" fill-rule="evenodd"/>
  <path id="Trazado_2710" data-name="Trazado 2710" d="M98.391,173.3,225.963,136.28l-.22-2.093L98.184,171.329Z" transform="translate(124.188 169.726)" fill="#edf1f5" fill-rule="evenodd"/>
  <path id="Trazado_2711" data-name="Trazado 2711" d="M103.417,88.055,230.99,51.038l-.22-2.093L103.21,86.086Z" transform="translate(130.546 61.907)" fill="#edf1f5" fill-rule="evenodd"/>
  <path id="Trazado_2712" data-name="Trazado 2712" d="M245.828,114.119,459.116,52.965l-.493-4.693L245.335,109.426Z" transform="translate(310.312 61.057)" fill="#525d6c" fill-rule="evenodd" opacity="0.1"/>
  <path id="Trazado_2713" data-name="Trazado 2713" d="M243.448,66.14l79.761-22.869L322.75,38.9,242.989,61.771Z" transform="translate(307.345 49.205)" fill="#edf1f5" fill-rule="evenodd" opacity="0.52" style="mix-blend-mode: overlay;isolation: isolate"/>
  <path id="Trazado_2714" data-name="Trazado 2714" d="M245.674,97.6,364.908,63.412l-.421-4L245.254,93.595Z" transform="translate(310.21 75.142)" fill="#ebac9b" fill-rule="evenodd"/>
  <path id="Trazado_2715" data-name="Trazado 2715" d="M242.992,120.284,569.237,27.533l-.493-4.693L242.5,115.591Z" transform="translate(306.725 28.889)" fill="#525d6c" fill-rule="evenodd" opacity="0.1"/>
  <path id="Trazado_2716" data-name="Trazado 2716" d="M243.188,118.524,644.24,4.5,643.767,0,242.714,114.019Z" transform="translate(306.998)" fill="#525d6c" fill-rule="evenodd" opacity="0.1"/>
  <path id="Trazado_2717" data-name="Trazado 2717" d="M218.852,111.173l232.19-65.784-.421-4-232.19,65.784Z" transform="translate(276.283 52.346)" fill="#edf1f5" fill-rule="evenodd" opacity="0.52" style="mix-blend-mode: overlay;isolation: isolate"/>
  <path id="Trazado_2718" data-name="Trazado 2718" d="M618.582,60.566,122.421,202.534l2.994,4.987L621.635,65.648Z" transform="translate(154.845 76.607)" fill="#edf1f5" fill-rule="evenodd" opacity="0.52" style="mix-blend-mode: overlay;isolation: isolate"/>
  <path id="Trazado_2719" data-name="Trazado 2719" d="M72.412,175.8,195.6,140.051l-.417-3.971L72.007,171.944Z" transform="translate(91.078 172.121)" fill="#f75b53" fill-rule="evenodd"/>
  <path id="Trazado_2720" data-name="Trazado 2720" d="M116.2,75.361,216.94,46.128l-.417-3.971L115.79,71.488Z" transform="translate(146.457 53.322)" fill="#edf1f5" fill-rule="evenodd"/>
  <path id="Trazado_2721" data-name="Trazado 2721" d="M37.341,153.463l338.553-97.07-.551-5.238L36.791,148.225Z" transform="translate(46.535 64.704)" fill="#162b52" fill-rule="evenodd"/>
</svg>
